<?xml version="1.0" encoding="utf-8"?>
<!-- Generator: Adobe Illustrator 27.3.1, SVG Export Plug-In . SVG Version: 6.00 Build 0)  -->
<svg version="1.1" id="Camada_1" xmlns="http://www.w3.org/2000/svg" xmlns:xlink="http://www.w3.org/1999/xlink" x="0px" y="0px"
	 viewBox="0 0 36 36" style="enable-background:new 0 0 36 36;" xml:space="preserve">
<style type="text/css">
	.st0{fill:#00A810;}
	.st1{fill:#FCDF00;}
	.st2{fill:#002777;}
	.st3{fill:#FFFFFF;}
</style>
<g>
	<rect y="0" class="st0" width="36" height="36"/>
	<polygon class="st1" points="34.6,18.1 18,28.9 1.4,18.1 18,7.1 	"/>
	<g>
		<path class="st2" d="M25.2,18c0,0.5-0.1,1-0.2,1.5c-0.1,0.3-0.2,0.6-0.3,0.9c-1,2.8-3.7,4.8-6.8,4.8c-4,0-7.2-3.2-7.2-7.2
			c0-0.7,0.1-1.4,0.3-2.1c0.1-0.4,0.2-0.7,0.4-1.1c1.2-2.4,3.6-4.1,6.5-4.1C22,10.8,25.2,14,25.2,18z"/>
		<path class="st3" d="M25,19.5l-0.3,0.9c0,0,0,0-0.1,0c-5-4.2-10.8-4.6-13.6-4.5c0.1-0.4,0.2-0.7,0.4-1.1
			c8.7-0.6,13.2,4.3,13.2,4.3S24.8,19.3,25,19.5z"/>
	</g>
</g>
</svg>
